<svg width="512" height="512" viewBox="0 0 512 512" xmlns="http://www.w3.org/2000/svg">
  <defs>
    <linearGradient id="g" x1="0" y1="0" x2="1" y2="1">
      <stop offset="0" stop-color="#14B8A6"/>
      <stop offset="1" stop-color="#8B7DDB"/>
    </linearGradient>
  </defs>
  <rect width="512" height="512" fill="url(#g)"/>
  <circle cx="256" cy="256" r="148" fill="#FFFFFF"/>
  <g transform="translate(256,256) scale(3.0)">
    <path d="M0,-40 A40,40 0 0,0 0,40 Z" fill="#2DD4BF"/>
    <path d="M0,-40 A40,40 0 0,1 0,40 Z" fill="#A78BFA"/>
    <path d="M-14,-16 q-12,7 -3,18" fill="none" stroke="#0F6E56" stroke-width="3.2" stroke-linecap="round"/>
    <path d="M-9,10 q-13,6 -4,19" fill="none" stroke="#0F6E56" stroke-width="3.2" stroke-linecap="round"/>
    <line x1="13" y1="-15" x2="23" y2="0" stroke="#5B49B8" stroke-width="2.2"/>
    <line x1="23" y1="0" x2="14" y2="16" stroke="#5B49B8" stroke-width="2.2"/>
    <circle cx="13" cy="-15" r="3.4" fill="#5B49B8"/>
    <circle cx="23" cy="0" r="3.4" fill="#5B49B8"/>
    <circle cx="14" cy="16" r="3.4" fill="#5B49B8"/>
    <path d="M0,16 C-7,9 -16,4 -16,-4 C-16,-9 -12,-12 -8,-12 C-4,-12 -1,-9 0,-7 C1,-9 4,-12 8,-12 C12,-12 16,-9 16,-4 C16,4 7,9 0,16 Z" fill="#FFFFFF"/>
  </g>
</svg>
